<mxfile host="app.diagrams.net" agent="Mozilla/5.0 (Macintosh; Intel Mac OS X 10_15_7) AppleWebKit/605.1.15 (KHTML, like Gecko) Version/17.2.1 Safari/605.1.15" version="26.0.4">
  <diagram name="Page-1" id="WF8vq5wlJStw158clnkG">
    <mxGraphModel dx="1590" dy="2076" grid="1" gridSize="10" guides="1" tooltips="1" connect="1" arrows="1" fold="1" page="1" pageScale="1" pageWidth="827" pageHeight="1169" math="0" shadow="0">
      <root>
        <mxCell id="0" />
        <mxCell id="1" parent="0" />
        <mxCell id="Wn622QaOvQ7UadjPtsyJ-1" value="" style="shape=umlActor;verticalLabelPosition=bottom;verticalAlign=top;html=1;outlineConnect=0;" vertex="1" parent="1">
          <mxGeometry x="80" y="60" width="30" height="60" as="geometry" />
        </mxCell>
        <mxCell id="Wn622QaOvQ7UadjPtsyJ-2" value="" style="endArrow=none;dashed=1;html=1;rounded=0;" edge="1" parent="1">
          <mxGeometry width="50" height="50" relative="1" as="geometry">
            <mxPoint x="140" y="1031.6666666666667" as="sourcePoint" />
            <mxPoint x="140" y="90" as="targetPoint" />
          </mxGeometry>
        </mxCell>
        <mxCell id="Wn622QaOvQ7UadjPtsyJ-3" value="" style="endArrow=classic;html=1;rounded=0;" edge="1" parent="1" target="Wn622QaOvQ7UadjPtsyJ-4">
          <mxGeometry width="50" height="50" relative="1" as="geometry">
            <mxPoint x="130" y="100" as="sourcePoint" />
            <mxPoint x="280" y="100" as="targetPoint" />
          </mxGeometry>
        </mxCell>
        <mxCell id="Wn622QaOvQ7UadjPtsyJ-4" value="" style="rounded=1;whiteSpace=wrap;html=1;direction=south;" vertex="1" parent="1">
          <mxGeometry x="440" y="40" width="20" height="120" as="geometry" />
        </mxCell>
        <mxCell id="Wn622QaOvQ7UadjPtsyJ-5" value="&amp;lt;&amp;lt;view&amp;gt;&amp;gt;&lt;div&gt;User_info_inputwindow&lt;/div&gt;" style="text;html=1;align=center;verticalAlign=middle;whiteSpace=wrap;rounded=0;" vertex="1" parent="1">
          <mxGeometry x="384" y="-10" width="60" height="30" as="geometry" />
        </mxCell>
        <mxCell id="Wn622QaOvQ7UadjPtsyJ-6" value="" style="rounded=1;whiteSpace=wrap;html=1;direction=south;" vertex="1" parent="1">
          <mxGeometry x="790" y="75" width="20" height="120" as="geometry" />
        </mxCell>
        <mxCell id="Wn622QaOvQ7UadjPtsyJ-7" value="" style="endArrow=classic;html=1;rounded=0;exitX=0.5;exitY=0;exitDx=0;exitDy=0;entryX=0.25;entryY=1;entryDx=0;entryDy=0;" edge="1" parent="1" source="Wn622QaOvQ7UadjPtsyJ-4" target="Wn622QaOvQ7UadjPtsyJ-6">
          <mxGeometry width="50" height="50" relative="1" as="geometry">
            <mxPoint x="530" y="100" as="sourcePoint" />
            <mxPoint x="790" y="100" as="targetPoint" />
          </mxGeometry>
        </mxCell>
        <mxCell id="Wn622QaOvQ7UadjPtsyJ-8" value="&amp;lt;&amp;lt;controller&amp;gt;&amp;gt;&lt;div&gt;registerationhandler&lt;/div&gt;" style="text;html=1;align=center;verticalAlign=middle;whiteSpace=wrap;rounded=0;" vertex="1" parent="1">
          <mxGeometry x="740" y="30" width="60" height="30" as="geometry" />
        </mxCell>
        <mxCell id="Wn622QaOvQ7UadjPtsyJ-9" value="" style="endArrow=classic;html=1;rounded=0;exitX=0.5;exitY=0;exitDx=0;exitDy=0;entryX=0.183;entryY=1;entryDx=0;entryDy=0;entryPerimeter=0;" edge="1" target="Wn622QaOvQ7UadjPtsyJ-10" parent="1" source="Wn622QaOvQ7UadjPtsyJ-6">
          <mxGeometry width="50" height="50" relative="1" as="geometry">
            <mxPoint x="684" y="130" as="sourcePoint" />
            <mxPoint x="844" y="190" as="targetPoint" />
          </mxGeometry>
        </mxCell>
        <mxCell id="Wn622QaOvQ7UadjPtsyJ-10" value="" style="rounded=1;whiteSpace=wrap;html=1;direction=south;" vertex="1" parent="1">
          <mxGeometry x="1160" y="116" width="20" height="120" as="geometry" />
        </mxCell>
        <mxCell id="Wn622QaOvQ7UadjPtsyJ-11" value="UserProfile" style="text;html=1;align=center;verticalAlign=middle;whiteSpace=wrap;rounded=0;" vertex="1" parent="1">
          <mxGeometry x="1150" y="85" width="60" height="30" as="geometry" />
        </mxCell>
        <mxCell id="Wn622QaOvQ7UadjPtsyJ-12" value="register(name,phone,email)" style="text;html=1;align=center;verticalAlign=middle;whiteSpace=wrap;rounded=0;" vertex="1" parent="1">
          <mxGeometry x="220" y="40" width="110" height="70" as="geometry" />
        </mxCell>
        <mxCell id="Wn622QaOvQ7UadjPtsyJ-13" value="register(name,phone,email)" style="text;html=1;align=center;verticalAlign=middle;whiteSpace=wrap;rounded=0;" vertex="1" parent="1">
          <mxGeometry x="570" y="50" width="110" height="70" as="geometry" />
        </mxCell>
        <mxCell id="Wn622QaOvQ7UadjPtsyJ-14" value="register(name,phone,email)" style="text;html=1;align=center;verticalAlign=middle;whiteSpace=wrap;rounded=0;" vertex="1" parent="1">
          <mxGeometry x="920" y="75" width="110" height="70" as="geometry" />
        </mxCell>
        <mxCell id="Wn622QaOvQ7UadjPtsyJ-17" value="" style="shape=card;whiteSpace=wrap;html=1;" vertex="1" parent="1">
          <mxGeometry x="220" y="210" width="1001" height="310" as="geometry" />
        </mxCell>
        <mxCell id="Wn622QaOvQ7UadjPtsyJ-18" value="" style="endArrow=none;dashed=1;html=1;dashPattern=1 3;strokeWidth=2;rounded=0;entryX=1;entryY=0.5;entryDx=0;entryDy=0;" edge="1" parent="1" source="Wn622QaOvQ7UadjPtsyJ-23" target="Wn622QaOvQ7UadjPtsyJ-4">
          <mxGeometry width="50" height="50" relative="1" as="geometry">
            <mxPoint x="450" y="930" as="sourcePoint" />
            <mxPoint x="650" y="400" as="targetPoint" />
          </mxGeometry>
        </mxCell>
        <mxCell id="Wn622QaOvQ7UadjPtsyJ-19" value="" style="endArrow=none;dashed=1;html=1;dashPattern=1 3;strokeWidth=2;rounded=0;entryX=1;entryY=0.5;entryDx=0;entryDy=0;" edge="1" parent="1" source="Wn622QaOvQ7UadjPtsyJ-27">
          <mxGeometry width="50" height="50" relative="1" as="geometry">
            <mxPoint x="810" y="1010" as="sourcePoint" />
            <mxPoint x="800" y="195" as="targetPoint" />
          </mxGeometry>
        </mxCell>
        <mxCell id="Wn622QaOvQ7UadjPtsyJ-20" value="" style="endArrow=none;dashed=1;html=1;dashPattern=1 3;strokeWidth=2;rounded=0;entryX=1;entryY=0.5;entryDx=0;entryDy=0;" edge="1" parent="1" source="Wn622QaOvQ7UadjPtsyJ-31" target="Wn622QaOvQ7UadjPtsyJ-10">
          <mxGeometry width="50" height="50" relative="1" as="geometry">
            <mxPoint x="1170" y="970" as="sourcePoint" />
            <mxPoint x="930" y="590" as="targetPoint" />
          </mxGeometry>
        </mxCell>
        <mxCell id="Wn622QaOvQ7UadjPtsyJ-21" value="" style="rounded=1;whiteSpace=wrap;html=1;direction=south;" vertex="1" parent="1">
          <mxGeometry x="443" y="320" width="20" height="150" as="geometry" />
        </mxCell>
        <mxCell id="Wn622QaOvQ7UadjPtsyJ-22" value="&amp;lt;&amp;lt;view&amp;gt;&amp;gt;&lt;div&gt;User_info_inputwindow&lt;/div&gt;" style="text;html=1;align=center;verticalAlign=middle;whiteSpace=wrap;rounded=0;" vertex="1" parent="1">
          <mxGeometry x="387" y="270" width="60" height="30" as="geometry" />
        </mxCell>
        <mxCell id="Wn622QaOvQ7UadjPtsyJ-25" value="&amp;lt;&amp;lt;controller&amp;gt;&amp;gt;&lt;div&gt;registerationhandler&lt;/div&gt;" style="text;html=1;align=center;verticalAlign=middle;whiteSpace=wrap;rounded=0;" vertex="1" parent="1">
          <mxGeometry x="750" y="297.5" width="60" height="30" as="geometry" />
        </mxCell>
        <mxCell id="Wn622QaOvQ7UadjPtsyJ-26" value="" style="rounded=1;whiteSpace=wrap;html=1;direction=south;" vertex="1" parent="1">
          <mxGeometry x="792" y="342.5" width="20" height="120" as="geometry" />
        </mxCell>
        <mxCell id="Wn622QaOvQ7UadjPtsyJ-28" value="&amp;lt;&amp;lt;controller&amp;gt;&amp;gt;&lt;div&gt;registerationhandler&lt;/div&gt;" style="text;html=1;align=center;verticalAlign=middle;whiteSpace=wrap;rounded=0;" vertex="1" parent="1">
          <mxGeometry x="750" y="520" width="60" height="30" as="geometry" />
        </mxCell>
        <mxCell id="Wn622QaOvQ7UadjPtsyJ-29" value="" style="rounded=1;whiteSpace=wrap;html=1;direction=south;" vertex="1" parent="1">
          <mxGeometry x="1160" y="371" width="20" height="120" as="geometry" />
        </mxCell>
        <mxCell id="Wn622QaOvQ7UadjPtsyJ-30" value="UserProfile" style="text;html=1;align=center;verticalAlign=middle;whiteSpace=wrap;rounded=0;" vertex="1" parent="1">
          <mxGeometry x="1150" y="340" width="60" height="30" as="geometry" />
        </mxCell>
        <mxCell id="Wn622QaOvQ7UadjPtsyJ-32" value="UserProfile" style="text;html=1;align=center;verticalAlign=middle;whiteSpace=wrap;rounded=0;" vertex="1" parent="1">
          <mxGeometry x="1140" y="520" width="60" height="30" as="geometry" />
        </mxCell>
        <mxCell id="Wn622QaOvQ7UadjPtsyJ-33" value="" style="endArrow=classic;html=1;rounded=0;entryX=0.25;entryY=1;entryDx=0;entryDy=0;" edge="1" parent="1">
          <mxGeometry width="50" height="50" relative="1" as="geometry">
            <mxPoint x="140" y="348" as="sourcePoint" />
            <mxPoint x="443" y="348" as="targetPoint" />
          </mxGeometry>
        </mxCell>
        <mxCell id="Wn622QaOvQ7UadjPtsyJ-34" value="" style="endArrow=classic;html=1;rounded=0;entryX=0.401;entryY=1.083;entryDx=0;entryDy=0;entryPerimeter=0;" edge="1" parent="1" target="Wn622QaOvQ7UadjPtsyJ-26">
          <mxGeometry width="50" height="50" relative="1" as="geometry">
            <mxPoint x="463" y="390" as="sourcePoint" />
            <mxPoint x="766" y="390" as="targetPoint" />
          </mxGeometry>
        </mxCell>
        <mxCell id="Wn622QaOvQ7UadjPtsyJ-35" value="" style="endArrow=classic;html=1;rounded=0;entryX=0.25;entryY=1;entryDx=0;entryDy=0;" edge="1" parent="1" target="Wn622QaOvQ7UadjPtsyJ-29">
          <mxGeometry width="50" height="50" relative="1" as="geometry">
            <mxPoint x="820" y="401.67" as="sourcePoint" />
            <mxPoint x="1155" y="402.67" as="targetPoint" />
          </mxGeometry>
        </mxCell>
        <mxCell id="Wn622QaOvQ7UadjPtsyJ-36" value="loop" style="text;html=1;align=center;verticalAlign=middle;whiteSpace=wrap;rounded=0;" vertex="1" parent="1">
          <mxGeometry x="240" y="220" width="60" height="30" as="geometry" />
        </mxCell>
        <mxCell id="Wn622QaOvQ7UadjPtsyJ-38" value="" style="endArrow=none;dashed=1;html=1;dashPattern=1 3;strokeWidth=2;rounded=0;entryX=1;entryY=0.5;entryDx=0;entryDy=0;" edge="1" parent="1" target="Wn622QaOvQ7UadjPtsyJ-27">
          <mxGeometry width="50" height="50" relative="1" as="geometry">
            <mxPoint x="810" y="1010" as="sourcePoint" />
            <mxPoint x="800" y="195" as="targetPoint" />
          </mxGeometry>
        </mxCell>
        <mxCell id="Wn622QaOvQ7UadjPtsyJ-27" value="" style="rounded=1;whiteSpace=wrap;html=1;direction=south;" vertex="1" parent="1">
          <mxGeometry x="792" y="580" width="20" height="120" as="geometry" />
        </mxCell>
        <mxCell id="Wn622QaOvQ7UadjPtsyJ-39" value="" style="endArrow=none;dashed=1;html=1;dashPattern=1 3;strokeWidth=2;rounded=0;entryX=1;entryY=0.5;entryDx=0;entryDy=0;" edge="1" parent="1" target="Wn622QaOvQ7UadjPtsyJ-31">
          <mxGeometry width="50" height="50" relative="1" as="geometry">
            <mxPoint x="1170" y="970" as="sourcePoint" />
            <mxPoint x="1170" y="236" as="targetPoint" />
          </mxGeometry>
        </mxCell>
        <mxCell id="Wn622QaOvQ7UadjPtsyJ-31" value="" style="rounded=1;whiteSpace=wrap;html=1;direction=south;" vertex="1" parent="1">
          <mxGeometry x="1160" y="560" width="20" height="120" as="geometry" />
        </mxCell>
        <mxCell id="Wn622QaOvQ7UadjPtsyJ-43" value="" style="endArrow=none;dashed=1;html=1;dashPattern=1 3;strokeWidth=2;rounded=0;entryX=1;entryY=0.5;entryDx=0;entryDy=0;" edge="1" parent="1" target="Wn622QaOvQ7UadjPtsyJ-23">
          <mxGeometry width="50" height="50" relative="1" as="geometry">
            <mxPoint x="450" y="930" as="sourcePoint" />
            <mxPoint x="450" y="160" as="targetPoint" />
          </mxGeometry>
        </mxCell>
        <mxCell id="Wn622QaOvQ7UadjPtsyJ-23" value="" style="rounded=1;whiteSpace=wrap;html=1;direction=south;" vertex="1" parent="1">
          <mxGeometry x="440" y="560" width="20" height="120" as="geometry" />
        </mxCell>
        <mxCell id="Wn622QaOvQ7UadjPtsyJ-44" value="&amp;lt;&amp;lt;view&amp;gt;&amp;gt;&lt;div&gt;User_info_inputwindow&lt;/div&gt;" style="text;html=1;align=center;verticalAlign=middle;whiteSpace=wrap;rounded=0;" vertex="1" parent="1">
          <mxGeometry x="384" y="520" width="60" height="30" as="geometry" />
        </mxCell>
        <mxCell id="Wn622QaOvQ7UadjPtsyJ-45" value="register(name,phone,email)" style="text;html=1;align=center;verticalAlign=middle;whiteSpace=wrap;rounded=0;" vertex="1" parent="1">
          <mxGeometry x="277" y="297.5" width="110" height="70" as="geometry" />
        </mxCell>
        <mxCell id="Wn622QaOvQ7UadjPtsyJ-46" value="register(name,phone,email)" style="text;html=1;align=center;verticalAlign=middle;whiteSpace=wrap;rounded=0;" vertex="1" parent="1">
          <mxGeometry x="490" y="340" width="110" height="70" as="geometry" />
        </mxCell>
        <mxCell id="Wn622QaOvQ7UadjPtsyJ-48" value="registeration_confirmed()" style="text;html=1;align=center;verticalAlign=middle;whiteSpace=wrap;rounded=0;" vertex="1" parent="1">
          <mxGeometry x="540" y="380" width="110" height="70" as="geometry" />
        </mxCell>
        <mxCell id="Wn622QaOvQ7UadjPtsyJ-49" value="" style="endArrow=classic;html=1;rounded=0;exitX=1;exitY=1;exitDx=0;exitDy=0;entryX=0.25;entryY=0;entryDx=0;entryDy=0;" edge="1" parent="1" source="Wn622QaOvQ7UadjPtsyJ-26" target="Wn622QaOvQ7UadjPtsyJ-23">
          <mxGeometry width="50" height="50" relative="1" as="geometry">
            <mxPoint x="850" y="440" as="sourcePoint" />
            <mxPoint x="520" y="610" as="targetPoint" />
            <Array as="points">
              <mxPoint x="680" y="470" />
              <mxPoint x="680" y="590" />
            </Array>
          </mxGeometry>
        </mxCell>
        <mxCell id="Wn622QaOvQ7UadjPtsyJ-50" value="" style="html=1;labelBackgroundColor=#ffffff;startArrow=none;startFill=0;startSize=6;endArrow=classic;endFill=1;endSize=6;jettySize=auto;orthogonalLoop=1;strokeWidth=1;dashed=1;fontSize=14;rounded=0;exitX=0.75;exitY=1;exitDx=0;exitDy=0;entryX=0.75;entryY=0;entryDx=0;entryDy=0;" edge="1" parent="1" source="Wn622QaOvQ7UadjPtsyJ-26" target="Wn622QaOvQ7UadjPtsyJ-21">
          <mxGeometry width="60" height="60" relative="1" as="geometry">
            <mxPoint x="890" y="600" as="sourcePoint" />
            <mxPoint x="910" y="670" as="targetPoint" />
          </mxGeometry>
        </mxCell>
        <mxCell id="Wn622QaOvQ7UadjPtsyJ-51" value="" style="html=1;labelBackgroundColor=#ffffff;startArrow=none;startFill=0;startSize=6;endArrow=classic;endFill=1;endSize=6;jettySize=auto;orthogonalLoop=1;strokeWidth=1;dashed=1;fontSize=14;rounded=0;exitX=0.75;exitY=1;exitDx=0;exitDy=0;entryX=1;entryY=0;entryDx=0;entryDy=0;" edge="1" parent="1" source="Wn622QaOvQ7UadjPtsyJ-6" target="Wn622QaOvQ7UadjPtsyJ-4">
          <mxGeometry width="60" height="60" relative="1" as="geometry">
            <mxPoint x="850" y="410" as="sourcePoint" />
            <mxPoint x="910" y="350" as="targetPoint" />
          </mxGeometry>
        </mxCell>
        <mxCell id="Wn622QaOvQ7UadjPtsyJ-52" value="wrong_input()" style="text;html=1;align=center;verticalAlign=middle;whiteSpace=wrap;rounded=0;" vertex="1" parent="1">
          <mxGeometry x="595" y="120" width="60" height="30" as="geometry" />
        </mxCell>
        <mxCell id="Wn622QaOvQ7UadjPtsyJ-53" value="" style="endArrow=classic;html=1;rounded=0;exitX=0.75;exitY=1;exitDx=0;exitDy=0;entryX=1;entryY=0.75;entryDx=0;entryDy=0;" edge="1" parent="1" source="Wn622QaOvQ7UadjPtsyJ-4" target="Wn622QaOvQ7UadjPtsyJ-45">
          <mxGeometry width="50" height="50" relative="1" as="geometry">
            <mxPoint x="850" y="410" as="sourcePoint" />
            <mxPoint x="420" y="350" as="targetPoint" />
            <Array as="points">
              <mxPoint x="387" y="130" />
            </Array>
          </mxGeometry>
        </mxCell>
        <mxCell id="Wn622QaOvQ7UadjPtsyJ-54" value="" style="html=1;labelBackgroundColor=#ffffff;startArrow=none;startFill=0;startSize=6;endArrow=classic;endFill=1;endSize=6;jettySize=auto;orthogonalLoop=1;strokeWidth=1;dashed=1;fontSize=14;rounded=0;exitX=0.5;exitY=1;exitDx=0;exitDy=0;" edge="1" parent="1" source="Wn622QaOvQ7UadjPtsyJ-23">
          <mxGeometry width="60" height="60" relative="1" as="geometry">
            <mxPoint x="850" y="410" as="sourcePoint" />
            <mxPoint x="140" y="620" as="targetPoint" />
          </mxGeometry>
        </mxCell>
        <mxCell id="Wn622QaOvQ7UadjPtsyJ-55" value="registeration_confirmed()" style="text;html=1;align=center;verticalAlign=middle;whiteSpace=wrap;rounded=0;" vertex="1" parent="1">
          <mxGeometry x="277" y="590" width="60" height="30" as="geometry" />
        </mxCell>
        <mxCell id="Wn622QaOvQ7UadjPtsyJ-56" value="register(name,phone,email)" style="text;html=1;align=center;verticalAlign=middle;whiteSpace=wrap;rounded=0;" vertex="1" parent="1">
          <mxGeometry x="870" y="342.5" width="110" height="70" as="geometry" />
        </mxCell>
      </root>
    </mxGraphModel>
  </diagram>
</mxfile>
